<svg width="234" height="234" viewBox="0 0 234 234" fill="none" xmlns="http://www.w3.org/2000/svg">
<circle cx="117" cy="117" r="116.5" fill="#F5F7FC" stroke="#E3E9F9"/>
<path d="M92.8594 134.926H77.5625V150.57H82.9512V145.507C91.2944 155.174 103.47 161 116.462 161C120.21 161 124.019 160.532 127.625 159.605L126.321 154.553C123.149 155.37 119.772 155.785 116.462 155.785C104.127 155.785 92.546 149.879 85.2059 140.141H92.8594V134.926Z" fill="#4262CC"/>
<path d="M116.462 77.2148C128.799 77.2148 140.378 83.121 147.717 92.8594H139.967V98.0742H155.264V82.4297H149.875V87.4756C141.532 77.8177 129.444 72 116.462 72C112.714 72 108.807 72.4685 105.201 73.3953L106.505 78.4473C109.678 77.6299 113.152 77.2148 116.462 77.2148Z" fill="#4262CC"/>
<path d="M155.785 116.5C155.785 128.836 149.879 140.28 140.141 147.616V139.967H134.926V155.264H150.57V149.875H145.539C155.186 141.533 161 129.476 161 116.5C161 112.757 160.532 108.983 159.605 105.375L154.553 106.674C155.373 109.856 155.785 113.195 155.785 116.5Z" fill="#4262CC"/>
<path d="M72 116.499C72 120.242 72.4685 124.016 73.3953 127.624L78.4473 126.326C77.6273 123.143 77.2148 119.804 77.2148 116.499C77.2148 104.162 83.1213 92.5795 92.8594 85.2413V93.0325H98.0742V77.7393H82.4297V83.1243H87.4994C77.8276 91.467 72 103.505 72 116.499V116.499Z" fill="#4262CC"/>
<path d="M116.326 93.0332C103.387 93.0332 92.8594 103.56 92.8594 116.5C92.8594 129.44 103.387 139.967 116.326 139.967C129.266 139.967 139.793 129.44 139.793 116.5C139.793 103.56 129.266 93.0332 116.326 93.0332ZM116.326 113.893C120.639 113.893 124.148 117.402 124.148 121.715C124.148 125.109 121.975 128.004 118.947 129.084V134.752H113.733V129.093C110.691 128.021 108.504 125.119 108.504 121.715H113.719C113.719 123.153 114.888 124.322 116.326 124.322C117.764 124.322 118.934 123.153 118.934 121.715C118.934 120.277 117.764 119.107 116.326 119.107C112.013 119.107 108.504 115.598 108.504 111.285C108.504 107.881 110.691 104.979 113.733 103.907V98.248H118.947V103.916C121.975 104.996 124.148 107.891 124.148 111.285H118.934C118.934 109.847 117.764 108.678 116.326 108.678C114.888 108.678 113.719 109.847 113.719 111.285C113.719 112.723 114.888 113.893 116.326 113.893Z" fill="#4262CC"/>
</svg>
