<?xml version="1.0" encoding="UTF-8"?>
<svg width="496px" height="496px" viewBox="0 0 496 496" version="1.1" xmlns="http://www.w3.org/2000/svg" xmlns:xlink="http://www.w3.org/1999/xlink">
    <!-- Generator: Sketch 58 (84663) - https://sketch.com -->
    <title>online-privacy</title>
    <desc>Created with Sketch.</desc>
    <defs>
        <linearGradient x1="99.9488%" y1="49.8484383%" x2="-0.0348%" y2="49.8484383%" id="linearGradient-1">
            <stop stop-color="#F499B7" offset="6.26%"></stop>
            <stop stop-color="#F396B8" offset="7.04%"></stop>
            <stop stop-color="#EE74BD" offset="16%"></stop>
            <stop stop-color="#EA5CC1" offset="24.55%"></stop>
            <stop stop-color="#E84EC3" offset="32.46%"></stop>
            <stop stop-color="#E749C4" offset="39.1%"></stop>
            <stop stop-color="#7D1DEA" offset="83.22%"></stop>
        </linearGradient>
    </defs>
    <g id="Page-1" stroke="none" stroke-width="1" fill="none" fill-rule="evenodd">
        <g id="online-privacy" fill="url(#linearGradient-1)" fill-rule="nonzero">
            <path d="M406.216,3.55271368e-15 L411.928,22.408 C414.115429,23.224 416.308735,24.1281633 418.487767,25.110414 L419.576,25.608 L439.488,13.776 L482.224,56.512 L470.384,76.424 C471.398857,78.5977143 472.325551,80.7949388 473.16912,82.9804082 L473.584,84.072 L496,89.776 L496,150.216 L473.584,155.92 C472.768,158.100571 471.863837,160.298776 470.881586,162.479347 L470.384,163.568 L482.224,183.48 L468.768,196.936 C484.912,204.8 496,221.328 496,240 C496,266.20728 474.900407,287.568946 448.79266,287.993558 L448,288 L224,288 L224,352 L276.688,352 L308.688,320 L329.472,320 C332.784,310.712 341.584,304 352,304 C365.232,304 376,314.768 376,328 C376,341.232 365.232,352 352,352 C341.721053,352 333.015859,345.46347 329.605578,336.365284 L329.472,336 L315.312,336 L283.312,368 L224,368 L224,384 L393.472,384 C396.784,374.712 405.584,368 416,368 C429.232,368 440,378.768 440,392 C440,405.232 429.232,416 416,416 C405.721053,416 397.015859,409.46347 393.605578,400.365284 L393.472,400 L224,400 L224,416 L283.312,416 L315.312,448 L329.472,448 C332.784,438.712 341.584,432 352,432 C365.232,432 376,442.768 376,456 C376,469.232 365.232,480 352,480 C341.721053,480 333.015859,473.46347 329.605578,464.365284 L329.472,464 L308.688,464 L276.688,432 L224,432 L224,496 L0,496 L0,292.688 L68.688,224 L96,224 C96,191.328 120.608,164.288 152.272,160.464 C156.144,106.624 201.184,64 256,64 C262.12,64 268.169688,64.5554688 274.129287,65.6070801 L275.32,65.824 L269.784,56.52 L312.52,13.784 L332.432,25.616 C334.605714,24.608 336.797061,23.6764082 338.985889,22.8313003 L340.08,22.416 L345.776,3.55271368e-15 L406.216,3.55271368e-15 Z M208,240 L80,240 L80,304 L16,304 L16,480 L208,480 L208,240 Z M192,384 L192,464 L32,464 L32,448 L48,448 L48,400 L64,400 L64,448 L80,448 L80,416 L96,416 L96,448 L112,448 L112,432 L128,432 L128,448 L144,448 L144,400 L160,400 L160,448 L176,448 L176,384 L192,384 Z M352,448 C347.592,448 344,451.584 344,456 C344,460.416 347.592,464 352,464 C356.408,464 360,460.416 360,456 C360,451.584 356.408,448 352,448 Z M416,384 C411.592,384 408,387.584 408,392 C408,396.416 411.592,400 416,400 C420.408,400 424,396.416 424,392 C424,387.584 420.408,384 416,384 Z M192,352 L192,368 L32,368 L32,352 L192,352 Z M48,320 L48,336 L32,336 L32,320 L48,320 Z M192,320 L192,336 L64,336 L64,320 L192,320 Z M352,320 C347.592,320 344,323.584 344,328 C344,332.416 347.592,336 352,336 C356.408,336 360,332.416 360,328 C360,323.584 356.408,320 352,320 Z M192,256 L192,304 L96,304 L96,256 L192,256 Z M176,272 L112,272 L112,288 L176,288 L176,272 Z M64,251.312 L27.312,288 L64,288 L64,251.312 Z M256,80 C207.9652,80 168.790504,118.694348 168.011814,166.547142 L168,168 L168,176 L160,176 C133.79272,176 112.431054,197.099593 112.006442,223.20734 L112,224 L224,224 L224,272 L448,272 C465.648,272 480,257.648 480,240 C480,225.69648 470.277408,213.274752 456.85584,209.371661 L456.448,209.256 L439.488,226.216 L419.576,214.384 C417.402286,215.392 415.210939,216.323592 413.022111,217.1687 L411.928,217.584 L406.224,240 L345.784,240 L340.072,217.592 C337.884571,216.776 335.691265,215.871837 333.512233,214.889586 L332.424,214.392 L312.512,226.224 L269.776,183.488 L281.616,163.576 C280.601143,161.402286 279.674449,159.205061 278.83088,157.019592 L278.416,155.928 L256,150.224 L256,89.784 L278.416,84.072 C278.544,83.728 278.72,83.376 278.856,83.024 C271.44,81.032 263.792,80 256,80 Z M393.776,16 L358.216,16 L353.424,34.832 L349.2,36.176 C345.047429,37.5057143 340.846571,39.2355102 336.693507,41.320551 L335.736,41.808 L331.792,43.856 L315.024,33.888 L289.88,59.032 L299.848,75.792 L297.816,79.728 C295.669143,83.888 293.887878,88.0893878 292.497825,92.2553003 L292.184,93.216 L290.832,97.44 L272,102.224 L272,137.784 L290.84,142.56 L292.192,146.784 C293.521714,150.944 295.244612,155.145388 297.335073,159.3113 L297.824,160.272 L299.856,164.208 L289.888,180.968 L315.032,206.112 L331.8,196.144 L335.744,198.192 C339.889143,200.331429 344.089469,202.119061 348.248901,203.510061 L349.208,203.824 L353.432,205.168 L358.224,224 L393.784,224 L398.568,205.168 L402.792,203.824 C406.944571,202.494286 411.145429,200.76449 415.298493,198.679449 L416.256,198.192 L420.2,196.144 L436.968,206.112 L462.112,180.968 L452.152,164.208 L454.184,160.272 C456.330857,156.112 458.112122,151.910612 459.502175,147.7447 L459.816,146.784 L461.168,142.56 L480,137.776 L480,102.216 L461.16,97.44 L459.808,93.216 C458.478286,89.056 456.755388,84.8546122 454.664927,80.6886997 L454.176,79.728 L452.144,75.792 L462.112,59.032 L436.968,33.888 L420.2,43.856 L416.256,41.808 C412.110857,39.6685714 407.910531,37.8809388 403.751099,36.4899388 L402.792,36.176 L398.568,34.832 L393.776,16 Z M376,48 C415.696,48 448,80.296 448,120 C448,159.704 415.696,192 376,192 C336.304,192 304,159.704 304,120 C304,80.296 336.304,48 376,48 Z M219.992,105.648 L228,119.488 C210.728,129.48 200,148.072 200,168 C200,170.376 200.152,172.712 200.432,175.008 L200.432,175.008 L184.56,176.992 C184.184,174.04 184,171.016 184,168 C184,142.376 197.792,118.48 219.992,105.648 L219.992,105.648 Z M376,64 C345.12,64 320,89.128 320,120 C320,150.872 345.12,176 376,176 C406.88,176 432,150.872 432,120 C432,89.128 406.88,64 376,64 Z M376,80 C398.056,80 416,97.944 416,120 C416,142.056 398.056,160 376,160 C353.944,160 336,142.056 336,120 C336,97.944 353.944,80 376,80 Z M376,96 C362.768,96 352,106.768 352,120 C352,133.232 362.768,144 376,144 C389.232,144 400,133.232 400,120 C400,106.768 389.232,96 376,96 Z" id="Combined-Shape"></path>
        </g>
    </g>
</svg>