<svg xmlns="http://www.w3.org/2000/svg" xmlns:xlink="http://www.w3.org/1999/xlink" width="207.781" height="212.562" viewBox="0 0 207.781 212.562">
  <defs>
    <style>
      .cls-1 {
        fill-rule: evenodd;
        fill: url(#linear-gradient);
      }
    </style>
    <linearGradient id="linear-gradient" x1="104.141" x2="104.141" y2="212.562" gradientUnits="userSpaceOnUse">
      <stop offset="0" stop-color="#e79cb7"/>
      <stop offset="0.482" stop-color="#c04ec7"/>
      <stop offset="1" stop-color="#732fe1"/>
    </linearGradient>
  </defs>
  <path class="cls-1" d="M199.477,203.985v8.571h-9v-8.571H181.91v-9h8.569v-8.571h9v8.571h8.568v9h-8.568Zm-0.429-8.57h-8.14v8.142h8.14v-8.142ZM200,60.674a3.608,3.608,0,0,1-2.069,2.07l-0.119.044L172.8,71.429c-0.1.036-.21,0.066-0.316,0.092-0.034.009-.069,0.014-0.1,0.022-0.071.015-.142,0.03-0.213,0.041-0.041.006-.081,0.01-0.122,0.015-0.066.008-.131,0.015-0.2,0.019l-0.128.005c-0.032,0-.065,0-0.1,0s-0.069,0-.1,0l-0.1,0q-0.123-.007-0.246-0.022l-0.055-.006c-0.1-.014-0.2-0.032-0.294-0.055l-0.075-.019c-0.072-.018-0.144-0.038-0.216-0.061l-0.092-.031c-0.068-.024-0.136-0.05-0.2-0.078-0.026-.011-0.053-0.021-0.078-0.033-0.092-.04-0.181-0.084-0.269-0.131l-0.016-.01c-0.082-.045-0.161-0.094-0.239-0.145l-0.075-.052c-0.059-.041-0.116-0.083-0.173-0.128l-0.075-.06c-0.061-.051-0.12-0.1-0.178-0.159-0.015-.015-0.032-0.029-0.047-0.044-0.072-.07-0.14-0.144-0.206-0.221-0.016-.019-0.031-0.038-0.046-0.057-0.05-.06-0.1-0.122-0.143-0.185-0.02-.028-0.039-0.055-0.058-0.084-0.041-.061-0.08-0.123-0.118-0.187-0.016-.027-0.033-0.054-0.048-0.082-0.051-.091-0.1-0.184-0.142-0.281l-0.044-.1L163.429,57.54,118.98,81.706a3.6,3.6,0,0,1-4.766-1.234C100.8,59.356,97.026,37.272,96.227,22.465a3.612,3.612,0,0,1,.989-2.683,3.551,3.551,0,0,1,2.5-1.119l0.133,0h0.067a13.9,13.9,0,0,0,10.142-4.349,14.087,14.087,0,0,0,3.92-10.524A3.61,3.61,0,0,1,117.449,0l0.128,0h69.112a3.608,3.608,0,0,1,3.6,3.787,14.09,14.09,0,0,0,3.921,10.524,13.9,13.9,0,0,0,10.141,4.349h0.084a3.608,3.608,0,0,1,3.6,3.8A124.863,124.863,0,0,1,200,60.674ZM189,19.3A21.552,21.552,0,0,1,183.238,7.22h-62.21a21.544,21.544,0,0,1-5.76,12.082,21.061,21.061,0,0,1-11.6,6.251c1.069,12.936,4.585,30.5,14.57,47.655l0.3,0.52,44.974-24.451A3.76,3.76,0,0,1,163.9,49.1c0.042-.017.085-0.03,0.127-0.045,0.09-.032.18-0.062,0.272-0.087,0.05-.014.1-0.025,0.15-0.036q0.13-.029.261-0.049c0.052-.008.1-0.015,0.156-0.02,0.091-.01.181-0.014,0.272-0.017,0.035,0,.069-0.006.1-0.006l0.054,0c0.039,0,.078,0,0.117.005,0.078,0,.155.01,0.233,0.018l0.123,0.016c0.08,0.012.159,0.027,0.237,0.044,0.036,0.008.072,0.014,0.108,0.023,0.113,0.028.225,0.061,0.336,0.1a3.606,3.606,0,0,1,2.078,1.912l0.051,0.117,5.094,12.415,20.189-6.976A117.218,117.218,0,0,0,200.6,25.552,21.052,21.052,0,0,1,189,19.3ZM145.707,212.556H45.853V134.244h8.51V107.005A14.184,14.184,0,0,0,26,106.77l0,0.235v44.263H0.465V107.005a39.715,39.715,0,0,1,79.424-.656l0.005,0.656v27.239h65.813v78.312ZM71.384,107.005a31.2,31.2,0,0,0-62.4-.516l0,0.516v35.751h8.51V107.005a22.694,22.694,0,0,1,45.385-.375l0,0.375v27.239h8.51V107.005ZM137.2,142.756H54.363v61.288H137.2V142.756ZM90.625,180.547a14.813,14.813,0,0,0,5.554,1.3,5.145,5.145,0,0,0,2.788-.649,2.117,2.117,0,0,0,1.016-1.9,2.248,2.248,0,0,0-.756-1.729,5.573,5.573,0,0,0-1.9-1.1q-1.146-.411-3.22-0.973a39.64,39.64,0,0,1-5.143-1.751,9.091,9.091,0,0,1-3.479-2.68,7.379,7.379,0,0,1-1.448-4.777,8.181,8.181,0,0,1,2.4-6.031,11.511,11.511,0,0,1,6.591-3.047v-6.139h5.748v6.052a24.345,24.345,0,0,1,5.057,1.145,20.156,20.156,0,0,1,4.408,2.1l-2.982,6.312a26.654,26.654,0,0,0-5.165-2.335,15.209,15.209,0,0,0-4.6-.907,4.258,4.258,0,0,0-2.312.54,1.759,1.759,0,0,0-.843,1.578,2.158,2.158,0,0,0,.735,1.664,5.619,5.619,0,0,0,1.815,1.081q1.08,0.411,3.2,1.059a41.583,41.583,0,0,1,5.208,1.816,9.105,9.105,0,0,1,3.523,2.788,7.747,7.747,0,0,1,1.47,4.907,8.135,8.135,0,0,1-2.615,6.29,12.5,12.5,0,0,1-6.894,3v6.4H93.024v-6.441a24.465,24.465,0,0,1-5.9-1.686,19.745,19.745,0,0,1-4.992-3.026l3.069-6.182A19.088,19.088,0,0,0,90.625,180.547ZM64.517,26.141h-9V17.57H46.951v-9H55.52V0h9V8.571h8.569v9H64.517v8.571ZM64.089,9h-8.14v8.142h8.14V9ZM17.817,52.282h-9V43.711H0.251v-9H8.82V26.141h9v8.571h8.569v9H17.817v8.571ZM17.388,35.14H9.248v8.142h8.14V35.14ZM122.256,91.922a3.618,3.618,0,0,1,.945-5.415l0.1-.056,33.106-18.1a3.522,3.522,0,0,1,.377-0.176c0.041-.017.082-0.029,0.124-0.044,0.089-.032.178-0.062,0.269-0.087,0.048-.013.1-0.025,0.146-0.036q0.13-.03.264-0.05c0.048-.007.1-0.015,0.146-0.02,0.1-.01.192-0.015,0.289-0.018,0.031,0,.062-0.006.094-0.006h0.035c0.032,0,.065,0,0.1,0,0.081,0,.161.008,0.241,0.017l0.114,0.014c0.078,0.011.157,0.025,0.235,0.041,0.034,0.007.068,0.013,0.1,0.021,0.11,0.026.22,0.056,0.328,0.093a3.589,3.589,0,0,1,2.065,1.828l0.055,0.118,4.1,9.262,22.208-7.849c0.09-.032.181-0.059,0.273-0.083l0.088-.021c0.063-.015.125-0.029,0.188-0.04l0.1-.017c0.059-.009.118-0.017,0.178-0.023l0.1-.009c0.062,0,.124-0.007.186-0.008l0.067,0H188.9c0.1,0,.206.006,0.308,0.015l0.067,0.008c0.083,0.009.165,0.021,0.248,0.037l0.086,0.017c0.1,0.02.195,0.044,0.292,0.073l0.01,0c0.1,0.03.2,0.066,0.292,0.1l0.08,0.034c0.077,0.033.152,0.068,0.226,0.106l0.064,0.032q0.137,0.074.267,0.16l0.058,0.04c0.069,0.048.138,0.1,0.2,0.152l0.07,0.056c0.082,0.069.162,0.14,0.238,0.217a3.621,3.621,0,0,1,.573,4.345,111.741,111.741,0,0,1-38.243,39.353,3.561,3.561,0,0,1-3.79,0A115.108,115.108,0,0,1,122.256,91.922Zm29.593,16.767a105.806,105.806,0,0,0,28.027-26.471l0.337-.468-15.469,5.467c-0.1.036-.207,0.067-0.311,0.094-0.035.009-.069,0.015-0.1,0.022-0.07.016-.139,0.031-0.209,0.042-0.041.007-.083,0.01-0.124,0.016-0.063.008-.127,0.016-0.19,0.02-0.044,0-.087,0-0.13.006s-0.079,0-.118,0l-0.073,0-0.1,0c-0.071,0-.143-0.009-0.214-0.017l-0.082-.009c-0.1-.013-0.192-0.029-0.286-0.049l-0.039-.01q-0.123-.028-0.243-0.065l-0.087-.028c-0.066-.022-0.131-0.046-0.2-0.071l-0.084-.034c-0.078-.033-0.155-0.069-0.23-0.108l-0.033-.016c-0.086-.045-0.169-0.094-0.251-0.147l-0.068-.046c-0.059-.04-0.118-0.081-0.175-0.124l-0.075-.058c-0.058-.046-0.114-0.095-0.169-0.145L161.1,86.44c-0.071-.067-0.14-0.138-0.205-0.211-0.014-.015-0.027-0.032-0.04-0.047q-0.078-.09-0.15-0.185l-0.057-.079q-0.063-.088-0.12-0.181c-0.016-.026-0.033-0.052-0.049-0.079-0.052-.088-0.1-0.177-0.146-0.27l-0.048-.1-3.866-8.735L130.637,90.642A108.545,108.545,0,0,0,151.849,108.689Zm25.777,26.73h9v8.571h8.569v9h-8.569v8.571h-9v-8.571h-8.569v-9h8.569v-8.571Zm0.428,17.142H186.2v-8.143h-8.141v8.143Z" transform="translate(-0.25)"/>
</svg>
