<svg width="234" height="234" viewBox="0 0 234 234" fill="none" xmlns="http://www.w3.org/2000/svg">
<circle cx="117" cy="117" r="116.5" fill="#F5F7FC" stroke="#E3E9F9"/>
<path d="M96.7651 128.797L116.109 139.966C116.311 140.082 116.536 140.141 116.761 140.141C116.986 140.141 117.211 140.082 117.413 139.966L136.757 128.797C137.161 128.565 137.409 128.134 137.409 127.668V105.332C137.409 104.866 137.161 104.435 136.757 104.203L117.413 93.0341C117.01 92.8011 116.513 92.8011 116.109 93.0341L96.7651 104.203C96.3619 104.435 96.1133 104.866 96.1133 105.332V127.668C96.1133 128.134 96.3619 128.565 96.7651 128.797ZM98.7207 107.59L115.458 117.253V136.579L98.7207 126.916V107.59ZM116.761 114.995L100.024 105.332L107.089 101.253L123.826 110.916L116.761 114.995ZM118.065 136.579V117.253L134.802 107.59V126.916L118.065 136.579ZM116.761 95.6684L133.498 105.332L126.433 109.41L109.697 99.7473L116.761 95.6684Z" fill="#4262CC"/>
<path d="M131.542 117.508C131.139 117.275 130.642 117.275 130.238 117.508L121.324 122.655C120.92 122.888 120.672 123.318 120.672 123.784V129.805C120.672 130.271 120.92 130.701 121.324 130.934C121.525 131.051 121.75 131.109 121.976 131.109C122.201 131.109 122.426 131.051 122.627 130.934L131.542 125.787C131.945 125.554 132.194 125.124 132.194 124.658V118.637C132.194 118.171 131.945 117.741 131.542 117.508ZM129.586 123.906L123.279 127.547V124.536L129.586 120.895V123.906Z" fill="#4262CC"/>
<path d="M151.307 125.943V107.057C154.387 105.589 156.521 102.446 156.521 98.813C156.521 93.7808 152.428 89.687 147.396 89.687C145.473 89.687 143.688 90.2864 142.215 91.3059L125.855 81.8602C125.874 81.6177 125.887 81.3735 125.887 81.1262C125.887 76.0938 121.793 72 116.761 72C111.729 72 107.635 76.0938 107.635 81.126C107.635 81.3733 107.647 81.6177 107.667 81.8601L91.3066 91.3057C89.8337 90.2862 88.0489 89.6868 86.126 89.6868C81.0938 89.6868 77 93.7807 77 98.8128C77 102.446 79.1344 105.589 82.2148 107.056V125.943C79.1344 127.41 77 130.554 77 134.187C77 139.219 81.0938 143.313 86.126 143.313C88.0489 143.313 89.8337 142.713 91.3066 141.694L107.667 151.14C107.647 151.382 107.635 151.626 107.635 151.874C107.635 156.906 111.729 161 116.761 161C121.793 161 125.887 156.906 125.887 151.874C125.887 151.626 125.874 151.382 125.855 151.14L142.215 141.694C143.688 142.713 145.473 143.313 147.396 143.313C152.428 143.313 156.521 139.219 156.521 134.187C156.521 130.554 154.387 127.411 151.307 125.943ZM148.699 125.156C148.273 125.094 147.838 125.061 147.396 125.061C146.953 125.061 146.518 125.094 146.092 125.156V107.844C146.518 107.906 146.953 107.939 147.396 107.939C147.838 107.939 148.273 107.906 148.699 107.844V125.156ZM153.914 98.813C153.914 102.407 150.99 105.332 147.396 105.332C143.801 105.332 140.877 102.407 140.877 98.813C140.877 95.2186 143.801 92.2944 147.396 92.2944C150.99 92.2944 153.914 95.2186 153.914 98.813ZM140.231 93.1709C139.693 93.8518 139.251 94.6102 138.923 95.427L123.926 86.7679C124.463 86.087 124.905 85.3286 125.233 84.5118L140.231 93.1709ZM116.761 74.6074C120.355 74.6074 123.279 77.5316 123.279 81.126C123.279 84.7204 120.355 87.6445 116.761 87.6445C113.166 87.6445 110.242 84.7204 110.242 81.126C110.242 77.5316 113.166 74.6074 116.761 74.6074ZM109.596 86.7688L94.5984 95.428C94.2707 94.6107 93.8283 93.8519 93.2908 93.1709L108.289 84.5118C108.617 85.3291 109.059 86.0879 109.596 86.7688ZM79.6074 98.813C79.6074 95.2186 82.5316 92.2944 86.126 92.2944C89.7204 92.2944 92.6445 95.2186 92.6445 98.813C92.6445 102.407 89.7204 105.332 86.126 105.332C82.5316 105.332 79.6074 102.407 79.6074 98.813ZM84.8223 107.844C85.2483 107.906 85.6832 107.939 86.126 107.939C86.5687 107.939 87.0036 107.906 87.4297 107.844V113.893C87.4297 114.613 88.0134 115.196 88.7334 115.196C89.4534 115.196 90.0371 114.613 90.0371 113.893V107.057C93.1175 105.589 95.252 102.446 95.252 98.813C95.252 98.566 95.2393 98.3221 95.22 98.0801L111.581 88.6338C113.054 89.6529 114.838 90.252 116.761 90.252C118.684 90.252 120.469 89.6526 121.941 88.6331L138.302 98.0787C138.282 98.3212 138.27 98.5655 138.27 98.8128C138.27 102.446 140.404 105.589 143.484 107.056V125.943C140.404 127.41 138.27 130.554 138.27 134.187C138.27 134.434 138.282 134.678 138.302 134.921L121.941 144.367C120.469 143.347 118.684 142.748 116.761 142.748C114.838 142.748 113.053 143.347 111.58 144.367L95.2198 134.921C95.2393 134.679 95.252 134.435 95.252 134.187C95.252 130.554 93.1175 127.411 90.0371 125.944V119.107C90.0371 118.387 89.4534 117.804 88.7334 117.804C88.0134 117.804 87.4297 118.387 87.4297 119.107V125.156C87.0036 125.094 86.5687 125.061 86.126 125.061C85.6832 125.061 85.2483 125.094 84.8223 125.156V107.844ZM79.6074 134.187C79.6074 130.593 82.5316 127.668 86.126 127.668C89.7204 127.668 92.6445 130.593 92.6445 134.187C92.6445 137.781 89.7204 140.706 86.126 140.706C82.5316 140.706 79.6074 137.781 79.6074 134.187ZM93.2908 139.829C93.8281 139.148 94.2703 138.39 94.598 137.573L109.596 146.232C109.059 146.913 108.616 147.671 108.289 148.488L93.2908 139.829ZM116.761 158.393C113.166 158.393 110.242 155.468 110.242 151.874C110.242 148.28 113.166 145.355 116.761 145.355C120.355 145.355 123.279 148.28 123.279 151.874C123.279 155.468 120.355 158.393 116.761 158.393ZM123.926 146.232L138.923 137.573C139.251 138.39 139.693 139.148 140.231 139.829L125.233 148.488C124.905 147.671 124.463 146.913 123.926 146.232ZM147.396 140.706C143.801 140.706 140.877 137.781 140.877 134.187C140.877 130.593 143.801 127.668 147.396 127.668C150.99 127.668 153.914 130.593 153.914 134.187C153.914 137.781 150.99 140.706 147.396 140.706Z" fill="#4262CC"/>
</svg>
