<svg width="234" height="234" viewBox="0 0 234 234" fill="none" xmlns="http://www.w3.org/2000/svg">
<circle cx="117" cy="117" r="116.5" fill="#F5F7FC" stroke="#E3E9F9"/>
<g style="mix-blend-mode:darken">
<g style="mix-blend-mode:darken">
<path d="M99.6861 78.4795C98.4322 78.3007 98.3793 78.2797 98.9694 78.1963C100.1 78.0364 102.77 78.2543 104.61 78.6565C108.906 79.5952 112.814 81.9999 116.987 86.2707L118.095 87.4053L119.681 87.171C126.361 86.184 133.157 86.9684 138.841 89.3824C140.404 90.0466 142.87 91.3686 143.178 91.7083C143.276 91.8166 143.456 92.5135 143.578 93.2572C144 95.8301 143.789 97.8023 142.934 99.2753C142.467 100.077 142.441 100.331 142.755 101.017C143.005 101.564 143.702 101.969 144.392 101.969C145.804 101.967 147.325 99.8676 148.029 96.9466L148.309 95.7864L148.863 96.3637C151.904 99.5308 154.292 103.85 154.702 106.924L154.809 107.726L154.298 106.997C153.419 105.743 152.534 104.89 151.403 104.201C149.363 102.96 147.206 102.538 141.493 102.261C136.334 102.011 133.414 101.606 130.518 100.738C125.592 99.2613 123.108 97.2947 117.256 90.2362C114.657 87.101 113.051 85.3664 111.453 83.9695C107.822 80.7954 104.253 79.1308 99.6861 78.4795Z" fill="#4262CC"/>
</g>
<g style="mix-blend-mode:darken">
<path d="M144.348 85.4812C144.478 83.3804 144.787 81.9947 145.411 80.7292C145.658 80.2283 145.888 79.8184 145.924 79.8184C145.96 79.8184 145.852 80.188 145.686 80.6399C145.233 81.868 145.158 83.5478 145.47 85.5022C145.866 87.982 146.092 88.3398 148.943 91.0184C150.28 92.2749 151.835 93.8595 152.399 94.5399L153.424 95.7769L152.399 94.8928C151.145 93.8117 148.262 91.7033 147.625 91.4019C147.198 91.1998 147.134 91.2033 146.871 91.4443C146.628 91.6664 146.577 92.0002 146.544 93.578C146.491 96.0371 146.126 97.6154 145.247 99.1936C144.771 100.047 144.695 99.865 145.126 98.9016C145.448 98.1822 145.48 97.866 145.478 95.4854C145.473 90.7024 144.855 89.5525 141.233 87.5826C140.316 87.0836 138.804 86.364 137.874 85.9833C136.943 85.6026 136.204 85.2711 136.231 85.2463C136.334 85.1525 139.866 86.1003 141.288 86.6031C143.403 87.351 143.752 87.448 144.009 87.3578C144.181 87.2973 144.265 86.8363 144.348 85.4812Z" fill="#4262CC"/>
</g>
<g style="mix-blend-mode:darken">
<path d="M102.119 93.6701C99.5732 90.4482 97.9982 85.5084 98.3392 81.8156L98.4446 80.6729L99.024 80.7701C100.112 80.9525 101.988 81.5945 102.867 82.0851C105.278 83.4311 106.321 85.2033 107.383 89.754C107.694 91.087 108.102 92.5954 108.29 93.1061C108.592 93.9281 109.734 95.8481 110.663 97.095C111.332 97.993 110.888 98.4186 109.409 98.2959C107.151 98.1085 104.092 96.1677 102.119 93.6701Z" fill="#4262CC"/>
</g>
<g style="mix-blend-mode:darken">
<path d="M141.259 117.648C129.364 113.245 125.174 109.423 125.174 102.974C125.174 102.025 125.209 101.248 125.253 101.248C125.296 101.248 125.756 101.561 126.275 101.944C128.688 103.723 131.389 104.483 138.867 105.486C143.268 106.076 145.744 106.553 148.028 107.249C155.289 109.463 159.781 113.955 160.853 120.075C161.164 121.853 160.981 125.187 160.476 126.944C160.078 128.332 158.862 130.834 158.54 130.931C158.45 130.957 158.363 130.642 158.339 130.213C158.217 127.915 156.955 125.678 154.834 124.003C152.422 122.098 149.182 120.581 141.259 117.648Z" fill="#4262CC"/>
</g>
<g style="mix-blend-mode:darken">
<path d="M132.899 119.476C132.75 118.66 132.491 117.619 132.324 117.161L132.021 116.33L132.584 116.912C133.365 117.717 133.981 118.747 134.504 120.119C134.903 121.167 134.947 121.478 134.944 123.18C134.941 124.851 134.892 125.201 134.523 126.143C133.943 127.63 133.222 128.684 132.013 129.815C129.84 131.849 127.046 132.974 123.014 133.441C122.314 133.522 120.271 133.659 118.475 133.745C113.95 133.961 110.971 134.408 108.295 135.272C107.91 135.396 107.567 135.472 107.532 135.44C107.424 135.341 109.246 134.342 110.751 133.675C112.873 132.736 114.986 132.223 119.719 131.498C122.057 131.14 124.472 130.706 125.085 130.533C130.875 128.901 133.851 124.689 132.899 119.476Z" fill="#4262CC"/>
</g>
<g style="mix-blend-mode:darken">
<path d="M138.352 128.383C136.772 125.259 136.409 122.243 137.275 119.43C137.367 119.13 137.516 118.884 137.606 118.884C137.695 118.884 138.068 119.069 138.434 119.296C139.163 119.746 140.624 120.506 144.515 122.456C149.371 124.89 152.14 126.775 154.023 128.929C155.672 130.814 156.693 132.963 157.184 135.582C157.462 137.065 157.299 140.635 156.885 142.129C155.579 146.84 152.545 150.54 148.216 152.699C147.582 153.016 147.013 153.275 146.952 153.276C146.89 153.278 147.121 152.737 147.465 152.076C148.921 149.278 149.087 146.556 147.986 143.527C147.312 141.671 145.937 139.408 143.163 135.582C139.936 131.135 139.146 129.951 138.352 128.383Z" fill="#4262CC"/>
</g>
<g style="mix-blend-mode:darken">
<path d="M93.6698 145.234C98.0842 141.807 103.577 139.373 108.58 138.625C110.737 138.303 114.329 138.431 116.325 138.901C119.526 139.654 122.389 141.341 123.878 143.35C125.333 145.314 125.958 147.026 126.607 150.834C126.864 152.336 127.143 153.844 127.227 154.186C127.715 156.159 128.665 157.737 129.842 158.529C131.712 159.787 134.931 159.865 138.098 158.73C138.636 158.536 139.102 158.403 139.135 158.433C139.25 158.538 137.655 159.52 136.53 160.036C135.017 160.732 133.813 161 132.213 161C129.313 161 126.905 159.644 124.895 156.878C124.5 156.333 123.611 154.703 122.92 153.254C120.799 148.806 119.751 147.451 117.288 145.967C115.144 144.677 112.379 144.446 110.299 145.383C107.567 146.615 106.805 149.825 108.762 151.859C109.54 152.667 110.99 153.364 112.176 153.5C114.394 153.754 116.301 152.202 116.301 150.143C116.301 148.806 115.742 148.043 114.335 147.459C112.413 146.661 110.347 147.593 110.356 149.254C110.361 149.962 110.696 150.406 111.468 150.727C111.963 150.933 111.974 150.949 111.571 150.872C109.807 150.536 109.394 148.581 110.812 147.284C112.514 145.726 116.035 146.413 117.243 148.54C117.751 149.433 117.81 151.212 117.367 152.286C116.377 154.69 113.487 155.953 110.556 155.266C108.56 154.797 107.748 154.29 105.342 152.012C101.161 148.052 99.5379 147.285 93.5105 146.42L92.3555 146.254L93.6698 145.234Z" fill="#4262CC"/>
</g>
<g style="mix-blend-mode:darken">
<path fill-rule="evenodd" clip-rule="evenodd" d="M74.0562 74.3683C88.0184 89.9476 97.6348 96.3754 98.7034 97.7334C99.5858 98.8547 99.2537 99.8628 97.7421 100.653C96.9015 101.092 95.1733 101.537 94.308 101.537C93.3294 101.537 92.9933 101.19 92.9933 101.19C92.4259 100.695 92.1063 100.782 89.1922 96.0264C85.1466 90.2551 81.7609 85.4675 81.6686 85.3873C81.455 85.202 81.4587 85.2082 88.7798 97.2512C89.9626 99.7612 89.015 100.683 89.015 101.04C89.015 101.767 88.7992 102.15 87.8234 103.15C86.1967 104.819 85.4695 106.693 84.9445 110.573C84.3561 114.922 82.7013 117.994 78.1154 123.253C75.431 126.33 74.9917 126.895 74.3144 128.135C73.4612 129.697 73.2266 130.572 73.1315 132.545C73.031 134.631 73.2268 135.978 73.9199 137.972C74.5267 139.718 75.1601 140.871 76.7793 143.177C78.1767 145.166 78.9813 146.645 78.9813 147.224C78.9813 147.684 79.0769 147.685 81.2423 147.235C86.4243 146.159 90.6321 144.267 92.9985 141.948C94.4632 140.513 94.807 139.72 94.8182 137.754C94.8255 136.467 94.7763 136.198 94.398 135.458C93.7823 134.253 92.6614 133.252 90.1909 131.699C86.9538 129.665 85.5712 128.027 85.1894 125.774C84.876 123.926 85.2395 122.622 87.0303 119.172C88.8838 115.6 89.3431 114.078 89.6538 110.478C89.8545 108.152 90.1324 107.235 90.8593 106.499C91.6174 105.731 92.2999 105.471 94.176 105.235C97.2347 104.851 99.1824 104.124 100.783 102.767C102.172 101.591 102.753 100.457 102.842 98.7503L102.91 97.4568L102.134 96.6249C99.3235 93.6121 72.174 72 72.0011 72C71.9641 72 72.889 73.0658 74.0562 74.3683ZM80.559 134.905C81.1945 133.87 80.8568 132.54 79.7939 131.89C78.7896 131.277 77.2294 131.566 77.2294 132.366C77.2294 132.61 77.3763 132.788 77.7072 132.944C78.2645 133.208 78.3049 133.504 77.8665 134.11C77.4224 134.724 77.4583 135.263 77.9676 135.63C78.7885 136.221 79.9505 135.896 80.559 134.905Z" fill="#4262CC"/>
</g>
<g style="mix-blend-mode:darken">
<path fill-rule="evenodd" clip-rule="evenodd" d="M104.841 105.913C103.405 106.319 102.01 107.718 101.577 109.185C101.314 110.08 101.463 111.65 101.858 112.135C102.496 112.918 103.113 113.124 104.783 113.113C108.053 113.092 110.896 111.803 111.226 110.191C111.497 108.87 110.249 107.039 108.529 106.235C107.642 105.82 105.754 105.656 104.841 105.913ZM108.664 108.661C109.168 108.003 108.948 107.291 108.09 106.809C106.457 105.892 103.987 106.651 103.987 108.07C103.987 108.776 105.275 109.546 106.455 109.546C107.241 109.546 108.317 109.115 108.664 108.661Z" fill="#4262CC"/>
</g>
</g>
</svg>
